<?xml version="1.0" encoding="utf-8"?>
<!-- Generator: Adobe Illustrator 16.0.0, SVG Export Plug-In . SVG Version: 6.00 Build 0)  -->
<!DOCTYPE svg PUBLIC "-//W3C//DTD SVG 1.1//EN" "http://www.w3.org/Graphics/SVG/1.1/DTD/svg11.dtd">
<svg version="1.1" id="Ebene_1" xmlns="http://www.w3.org/2000/svg" xmlns:xlink="http://www.w3.org/1999/xlink" x="0px" y="0px"
	 width="327.896px" height="410.4px" viewBox="315.885 10.8 327.896 410.4" enable-background="new 315.885 10.8 327.896 410.4"
	 xml:space="preserve">
<g>
	<path fill="#2E2D29" d="M608.349,10.8H351.741c-19.872,0-35.856,15.984-35.856,35.856v338.688
		c0,19.872,15.984,35.856,35.856,35.856h256.176c19.872,0,35.856-15.984,35.856-35.856V46.656
		C644.205,26.784,627.789,10.8,608.349,10.8z M625.197,385.344c0,9.504-7.776,17.28-17.28,17.28H351.741
		c-9.504,0-17.28-7.776-17.28-17.28V46.656c0-9.504,7.776-17.28,17.28-17.28h256.176c9.504,0,17.28,7.776,17.28,17.28V385.344z"/>
	<path fill="#2E2D29" d="M564.285,195.696h-168.48c-5.184,0-9.504,4.32-9.504,9.504c0,5.184,4.32,9.504,9.504,9.504h168.048
		c5.185,0,9.505-4.32,9.505-9.504C573.357,200.016,569.469,195.696,564.285,195.696z"/>
	<path fill="#2E2D29" d="M564.285,264.384h-168.48c-5.184,0-9.504,4.32-9.504,9.505c0,5.184,4.32,9.504,9.504,9.504h168.048
		c5.185,0,9.505-4.32,9.505-9.504C573.357,268.704,569.469,264.384,564.285,264.384z"/>
	<path fill="#2E2D29" d="M564.285,333.072h-168.48c-5.184,0-9.504,4.319-9.504,9.504c0,5.184,4.32,9.504,9.504,9.504h168.048
		c5.185,0,9.505-4.32,9.505-9.504C573.357,337.392,569.469,333.072,564.285,333.072z"/>
	<path fill="#2E2D29" d="M517.197,151.632c0-16.848-6.049-31.968-17.712-39.312c-0.433-0.432-1.296-0.432-1.729,0
		c-4.752,3.456-11.231,5.616-17.712,5.616s-12.528-2.16-17.712-5.616c-0.432-0.432-1.296-0.432-1.729,0
		c-11.663,7.344-17.712,22.464-17.712,39.312C442.893,163.296,517.197,163.296,517.197,151.632z"/>
	<circle fill="#2E2D29" cx="480.045" cy="88.128" r="22.032"/>
</g>
</svg>
