<?xml version="1.0" encoding="utf-8"?>
<!-- Generator: Adobe Illustrator 16.0.0, SVG Export Plug-In . SVG Version: 6.00 Build 0)  -->
<!DOCTYPE svg PUBLIC "-//W3C//DTD SVG 1.1//EN" "http://www.w3.org/Graphics/SVG/1.1/DTD/svg11.dtd">
<svg version="1.1" id="Ebene_1" xmlns="http://www.w3.org/2000/svg" xmlns:xlink="http://www.w3.org/1999/xlink" x="0px" y="0px"
	 width="408.19px" height="276.479px" viewBox="364.835 159.45 408.19 276.479"
	 enable-background="new 364.835 159.45 408.19 276.479" xml:space="preserve">
<path fill="#2E2D29" d="M551.075,320.194l-12.37-4.67c-2.24-0.81-4.67-3.45-5.69-5.68c-0.6-1.62-1.21-3.04-1.819-4.46
	c-1.021-2.23-1.221-5.89-0.2-8.12l5.47-11.97c1.42-3.24,0.61-8.11-2.03-10.75l-1.189-1.19l-9.76-9.77
	c-2.641-2.63-7.511-3.44-10.75-2.02l-3.7,1.69l-8.271,3.78c-2.229,1.02-5.89,0.81-8.12-0.2c-1.42-0.61-3.04-1.42-4.46-1.83
	c-2.229-0.81-4.87-3.24-5.68-5.68l-4.67-12.37c-1.21-3.45-5.271-6.29-8.92-6.29h-15.63c-3.65,0-7.7,2.84-8.92,6.29l-4.67,12.37
	c-0.81,2.24-3.45,4.67-5.68,5.68c-1.62,0.61-3.04,1.22-4.46,1.83c-2.23,1.01-5.88,1.22-8.12,0.2l-11.97-5.47
	c-3.24-1.42-8.11-0.61-10.75,2.02l-10.95,10.96c-2.64,2.64-3.45,7.51-2.03,10.75l5.48,11.97c1.01,2.23,0.81,5.89-0.21,8.12
	c-0.61,1.42-1.42,3.04-1.82,4.46c-0.81,2.229-3.25,4.87-5.68,5.68l-12.38,4.67c-3.45,1.21-6.29,5.271-6.29,8.92v15.62
	c0,3.65,2.84,7.71,6.29,8.931l12.38,4.67c2.23,0.81,4.66,3.449,5.68,5.68c0.61,1.62,1.21,3.04,1.82,4.46
	c1.02,2.23,1.22,5.88,0.21,8.11l-5.48,11.97c-1.42,3.25-0.61,8.12,2.03,10.76l10.95,10.95c2.64,2.64,7.51,3.45,10.75,2.03
	l11.97-5.48c2.24-1.01,5.89-0.81,8.12,0.21c1.42,0.61,3.04,1.42,4.46,1.82c2.23,0.81,4.87,3.25,5.68,5.68l4.67,12.38
	c1.22,3.45,5.27,6.29,8.92,6.29h15.63c1.22,0,2.49-0.319,3.67-0.87c2.38-1.1,4.44-3.119,5.25-5.42l4.15-10.989l0.52-1.391
	c0.81-2.229,3.45-4.66,5.68-5.68c1.62-0.61,3.04-1.21,4.46-1.82c2.23-1.02,5.891-1.22,8.12-0.21l11.971,5.48
	c3.239,1.42,8.109,0.609,10.75-2.03l10.949-10.95c2.641-2.64,3.45-7.51,2.03-10.76l-5.47-11.97c-1.021-2.23-0.82-5.88,0.2-8.11
	c0.609-1.42,1.42-3.04,1.819-4.46c0.811-2.23,3.25-4.87,5.69-5.68l12.37-4.67c3.45-1.221,6.29-5.28,6.29-8.931v-15.62
	C557.365,325.465,554.525,321.404,551.075,320.194z M467.715,384.845c-2.189,0.31-4.439,0.47-6.72,0.47
	c-4.13,0-8.13-0.52-11.95-1.49c-20.95-5.319-36.33-24.319-36.33-46.8c0-26.569,21.71-48.279,48.28-48.279
	c11.359,0,21.83,3.97,30.09,10.59c4.95,3.949,9.11,8.859,12.19,14.439c3.829,6.9,6.01,14.84,6.01,23.25
	C509.285,361.335,491.285,381.574,467.715,384.845z"/>
<path fill="#2E2D29" d="M700.025,413.77c-6.75,0-12.921-0.34-18.521-0.979c-3.24,3.7-7.97,5.87-12.979,5.86H514.215
	c-9.55,0.04-17.32-7.66-17.36-17.21c-0.01-2.721,0.62-5.41,1.851-7.851l3.01-6.01c-2.189,0.31-4.439,0.47-6.72,0.47
	c-4.13,0-8.13-0.52-11.95-1.49c-8.04,16.94-1.08,37.28,15.76,45.71c2.48,1.24,5.09,2.181,7.78,2.79c2.49,0.57,5.06,0.86,7.63,0.87
	h154.311c3.38-0.01,6.64-0.5,9.729-1.41c10.33-3.05,18.65-10.789,22.48-20.76C700.495,413.77,700.265,413.77,700.025,413.77z
	 M699.365,385.9l-6.11-12.25c-7.54-0.271-14.26-1-20.22-2.12l11,22.06c0.27,0.54,0.51,1.08,0.71,1.641
	c4.93,0.46,10.03,0.689,15.28,0.699c0.859,0,1.71-0.01,2.56-0.029C702.035,392.43,700.945,389.06,699.365,385.9z M672.455,331.96
	c-1.13-0.18-2.23-0.38-3.3-0.59c-7.75-1.521-14.17-3.72-19.38-6.45l13.319,26.69c6.48,1.659,13.5,2.859,20.94,3.56L672.455,331.96z
	 M659.745,306.5v-0.01l-18.34-36.76l-0.73-1.47l-4.03-8.07v-92.1c0-4.78-3.869-8.64-8.64-8.64h-73.44c-4.77,0-8.64,3.86-8.64,8.64
	v92.1l-2.89,5.8l-17.95,36.08c4.95,3.949,9.11,8.859,12.19,14.439l20.229-40.42h33.86c4.779,0,8.64-3.87,8.64-8.64
	c0-4.78-3.86-8.64-8.64-8.64h-27.99v-14.26h27.99c4.779,0,8.64-3.87,8.64-8.64s-3.86-8.64-8.64-8.64h-27.99v-14.26h27.99
	c4.779,0,8.64-3.86,8.64-8.64c0-4.77-3.86-8.64-8.64-8.64h-27.99v-19h56.16v85.49c-0.01,1.35,0.3,2.68,0.91,3.89l8.6,17.24
	l6.07,12.17c5.43,4.921,14.199,9.07,25.12,11.971L659.745,306.5z"/>
<path fill="#2E2D29" d="M773.025,317.93c-0.011,17.69-13.7,24.23-26.521,29.641c-13.51,5.38-30.6,8.33-49.479,8.359
	c-5.5-0.01-10.841-0.26-15.99-0.76c-7.44-0.7-14.46-1.9-20.94-3.56c-4.46-1.13-8.66-2.49-12.56-4.04
	c-12.811-5.41-26.5-11.95-26.51-29.641h18.989c1.59,1.59,3.42,3.09,5.511,4.48c1.31,0.88,2.729,1.72,4.25,2.51
	c5.21,2.73,11.63,4.93,19.38,6.45c1.069,0.21,2.17,0.41,3.3,0.59c7.13,1.19,15.29,1.82,24.57,1.82c29.279,0,47.489-6.34,57-15.851
	H773.025z"/>
<path fill="#2E2D29" d="M773.025,357.93c-0.011,17.681-13.7,24.24-26.521,29.65c-12.9,5.14-29.05,8.05-46.92,8.32
	c-0.85,0.02-1.7,0.029-2.56,0.029c-5.25-0.01-10.351-0.239-15.28-0.699c-12.84-1.15-24.46-3.761-34.21-7.65
	c-12.811-5.41-26.5-11.97-26.51-29.65h18.989c6.16,6.141,15.95,10.971,30.021,13.601c5.96,1.12,12.68,1.85,20.22,2.12
	c2.19,0.08,4.44,0.119,6.771,0.119c29.279,0,47.489-6.34,57-15.84H773.025z"/>
<path fill="#2E2D29" d="M773.025,397.93c-0.011,17.681-13.7,24.25-26.521,29.66c-13.51,5.38-30.6,8.32-49.479,8.34
	c-7.591-0.01-14.891-0.489-21.771-1.41c-10.28-1.359-19.65-3.71-27.72-6.93c-5.78-2.439-11.73-5.109-16.521-8.939
	c-5.85-4.65-9.979-11.011-9.989-20.721h18.989c7.32,7.311,19.79,12.75,38.49,14.86c5.6,0.64,11.771,0.979,18.521,0.979
	c0.239,0,0.47,0,0.71-0.01c28.859-0.09,46.859-6.41,56.29-15.83H773.025z"/>
<path fill="#2E2D29" d="M765.025,283.93c0,15.46-30.431,28-68,28c-13.551,0-26.181-1.63-36.79-4.439
	c-10.921-2.9-19.69-7.05-25.12-11.971c-3.91-3.529-6.09-7.449-6.09-11.59c0-0.189,0-0.39,0.02-0.58
	c0.27-5.59,4.52-10.77,11.63-15.09c12.22-7.44,32.89-12.33,56.351-12.33C734.595,255.93,765.025,268.47,765.025,283.93z"/>
</svg>
