<?xml version="1.0" encoding="utf-8"?>
<!-- Generator: Adobe Illustrator 16.0.0, SVG Export Plug-In . SVG Version: 6.00 Build 0)  -->
<!DOCTYPE svg PUBLIC "-//W3C//DTD SVG 1.1//EN" "http://www.w3.org/Graphics/SVG/1.1/DTD/svg11.dtd">
<svg version="1.1" id="Ebene_1" xmlns="http://www.w3.org/2000/svg" xmlns:xlink="http://www.w3.org/1999/xlink" x="0px" y="0px"
	 width="1040.574px" height="643.514px" viewBox="46.634 2938.118 1040.574 643.514"
	 enable-background="new 46.634 2938.118 1040.574 643.514" xml:space="preserve">
<path fill="#2E2D29" d="M1084.581,3204.284l-163.036-258.241c-2.42-3.831-6.268-6.538-10.691-7.523
	c-4.412-0.975-9.052-0.161-12.866,2.28l-114.339,73.264c-7.873,5.044-10.198,15.497-5.21,23.402l9.757,15.454l-23.631,9.526
	c-2.303,0.931-4.789,1.141-7.197,0.643l-73.02-15.336c-42.088-8.836-84.891-9.34-127.217-1.484l-68.679,12.768
	c-18.812,3.493-36.006,12.289-49.821,25.153l-63.925-10.149c-1.334-0.216-2.607-0.637-3.787-1.246l-30.024-15.591
	c16.441-37.455,3.566-82.415-32.05-104.898c-19.001-11.997-41.54-15.878-63.47-10.929c-21.919,4.955-40.604,18.148-52.602,37.155
	L59.655,3189.375c-11.997,19.006-15.873,41.545-10.924,63.47c4.955,21.924,18.154,40.604,37.155,52.596
	c13.614,8.593,29.044,13.021,44.762,13.021c6.224,0,12.49-0.687,18.702-2.093c17.592-3.979,33.029-13.329,44.669-26.655
	l53.914,71.087l-18.027,25.771c-17.113,24.47-11.239,58.486,13.065,75.794l0.958,0.686c9.139,6.5,19.774,9.908,30.722,10.078
	c-0.003,17.449,8.144,34.676,23.402,45.408c9.418,6.633,20.391,10.088,31.663,10.088c3.316,0,6.66-0.299,9.993-0.908
	c3.083-0.559,6.021-1.5,8.907-2.537c4.715,12.25,13.426,22.656,25.108,28.945c0.111,0.066,0.228,0.121,0.338,0.178
	c8.244,4.373,17.119,6.467,25.894,6.467c8.404,0,16.686-1.979,24.229-5.664c5.432,10.133,14.125,18.172,25.001,22.66
	c6.317,2.602,12.872,3.865,19.328,3.865c15.158,0,29.714-6.988,39.437-19.545l82.536,12.623c5.586,0.854,11.167,1.273,16.697,1.273
	c28.484,0,55.628-11.215,76.064-31.43c1.947,0.186,3.896,0.338,5.836,0.338c20.286,0,39.935-10.033,51.722-28.125
	c6.282-8.672,9.43-19.143,9.297-29.732c0.252,0.002,0.505,0.045,0.758,0.045c21.254,0,42.109-10.375,54.429-29.1
	c4.971-7.564,7.526-16.1,8.033-24.855c1.383,0.096,2.766,0.275,4.146,0.275c19.594-0.012,38.716-9.59,50.293-27.129
	c8.919-13.52,12.009-29.687,8.692-45.542c-0.446-2.136-1.271-4.109-1.93-6.155l65.206-61.625l1.743,2.76
	c2.419,3.831,6.268,6.533,10.69,7.519c1.224,0.277,2.459,0.41,3.693,0.41c3.228,0,6.416-0.919,9.174-2.691l114.338-73.258
	C1087.244,3222.644,1089.569,3212.19,1084.581,3204.284z M141.86,3283.184c-13.044,2.957-26.486,0.643-37.814-6.511
	c-11.321-7.142-19.184-18.27-22.134-31.33c-2.951-13.061-0.637-26.486,6.511-37.809L221.54,2996.69
	c7.147-11.322,18.276-19.184,31.337-22.135c3.703-0.836,7.436-1.251,11.145-1.251c9.362,0,18.553,2.641,26.663,7.757v0.005
	c23.37,14.755,30.379,45.775,15.624,69.145L173.19,3261.055C166.043,3272.377,154.915,3280.238,141.86,3283.184z M262.725,3434.672
	c-9.185-6.545-11.399-19.379-4.943-28.613l32.394-46.306c3.953-5.647,10.27-8.736,16.819-8.736c3.814,0,7.707,1.04,11.256,3.232
	c4.845,2.99,8.166,7.696,9.356,13.243c1.082,5.067,0.162,10.183-2.434,14.605l-34.067,49.885c-3.075,3.566-7.171,6.016-11.876,6.852
	c-5.515,1.008-11.023-0.266-15.553-3.488L262.725,3434.672z M333.636,3494.243c-5.636,1.02-11.322-0.221-16.083-3.576
	c-9.435-6.643-11.815-19.797-5.304-29.332l6.963-10.195c0.454-0.609,1.021-1.098,1.452-1.73
	c10.049-14.682,21.936-32.166,31.995-46.98c0.269-0.398,0.417-0.845,0.675-1.248l27.185-39.801
	c4.08-5.979,10.796-9.212,17.611-9.212c3.964,0,7.973,1.096,11.504,3.388c4.822,3.146,8.101,7.984,9.229,13.62
	c1.13,5.647-0.033,11.383-3.277,16.145l-9.331,13.683c-0.206,0.287-0.483,0.508-0.685,0.801l-51.156,74.353
	c-0.913,1.328-1.493,2.812-2.28,4.203l-4.746,6.959C344.156,3490.057,339.272,3493.225,333.636,3494.243z M389.881,3524.184
	c-0.077-0.033-0.149-0.076-0.227-0.109c-5.276-2.912-8.952-7.74-10.37-13.609c-1.065-4.418-0.709-8.889,0.96-12.959l53.987-79.162
	c3.38-4.469,8.216-7.416,13.815-8.232c5.919-0.896,11.743,0.742,16.394,4.496c8.56,6.941,10.381,19.477,4.146,28.557l-15.327,22.289
	c-0.379,0.502-0.866,0.9-1.227,1.418l-24.902,35.766c-0.846,1.213-1.354,2.572-2.083,3.84l-7.601,11.053
	C411.302,3526.477,399.454,3529.356,389.881,3524.184z M462.165,3546.319c-4.567-1.883-7.979-5.68-9.373-10.408
	c-1.021-3.484-0.828-7.125,0.457-10.422l27.92-40.594c2.556-2.904,5.964-4.836,9.868-5.379c0.765-0.1,1.522-0.154,2.271-0.154
	c3.62,0,7.092,1.207,9.981,3.488c0.089,0.076,0.184,0.154,0.271,0.232c6.483,5.326,7.807,14.893,3.001,21.779l-24.92,35.744
	C477.262,3546.895,469.246,3549.254,462.165,3546.319z M839.373,3387.534c-7.763,11.749-23.319,15.314-35.4,8.072l-14.996-8.975
	c-0.003-0.001-0.005-0.004-0.008-0.005l-2.879-1.723l-126.861-75.921c-8.072-4.827-18.497-2.203-23.33,5.857
	c-4.822,8.062-2.198,18.503,5.857,23.331l129.76,77.655c3.928,2.359,6.653,6.105,7.676,10.574c1.024,4.473,0.199,9.057-2.319,12.889
	c-8.747,13.275-26.525,17.705-40.488,10.109l-113.147-61.666c-8.244-4.484-18.58-1.439-23.07,6.799
	c-4.496,8.25-1.456,18.58,6.793,23.076l81.677,44.514l20.133,12.291c3.775,2.303,6.317,5.967,7.164,10.309
	c0.842,4.352-0.149,8.703-2.79,12.246c-0.238,0.332-0.471,0.664-0.687,0.996c-7.74,12.115-23.253,16.344-36.06,9.834l-87.608-44.48
	c-8.376-4.24-18.613-0.908-22.865,7.475c-4.252,8.371-0.913,18.613,7.463,22.865l72.87,36.994
	c-14.896,9.266-32.667,13.184-50.63,10.441l-65.836-10.068l4.675-6.707c14.782-21.193,10.852-50.592-8.896-67.178
	c-0.139-0.123-0.282-0.244-0.427-0.355c-6.215-5.111-13.58-8.389-21.311-10.066c6.069-20.861-0.35-44.25-17.987-58.541
	c-9.345-7.568-20.925-11.683-32.786-12.118c0.213-4.497,0.067-9.027-0.842-13.56c-2.939-14.694-11.477-27.284-24.028-35.444
	c-24.78-16.117-58.391-9.522-75.321,14.614c-4.352-6.535-10.04-12.218-17.114-16.585c-21.619-13.344-49.101-9.815-66.7,7.271
	l-54.921-72.416l109.469-173.39l31.646,16.435c4.424,2.292,9.163,3.854,14.107,4.645l44.066,6.999l-44.543,57.943
	c-7.596,9.889-10.862,22.141-9.196,34.498c1.661,12.352,8.056,23.303,17.994,30.815c14.25,10.796,33.7,12.401,49.523,4.13
	l124.408-65.03c3.942-2.082,8.742-1.854,12.496,0.587l267.637,173.456c5.924,3.842,9.982,9.755,11.427,16.665
	C844.604,3374.591,843.26,3381.644,839.373,3387.534z M854.974,3326.255c-1.577-1.262-3.016-2.66-4.734-3.773L582.598,3149.02
	c-14.035-9.085-31.956-9.916-46.755-2.182l-124.409,65.031c-4.225,2.22-9.429,1.777-13.237-1.107
	c-2.658-2.01-4.363-4.933-4.812-8.238c-0.442-3.305,0.432-6.577,2.464-9.224l58.542-76.153
	c9.938-12.928,24.238-21.687,40.272-24.671l68.679-12.767c37.902-7.042,76.265-6.6,114.018,1.329l73.025,15.341
	c9.058,1.894,18.343,1.058,26.901-2.386l29.365-11.839l114.576,181.482L854.974,3326.255z M961.102,3263.07l-144.878-229.479
	l85.693-54.91l144.877,229.479L961.102,3263.07z"/>
</svg>
