<?xml version="1.0" encoding="utf-8"?>
<!-- Generator: Adobe Illustrator 16.0.0, SVG Export Plug-In . SVG Version: 6.00 Build 0)  -->
<!DOCTYPE svg PUBLIC "-//W3C//DTD SVG 1.1//EN" "http://www.w3.org/Graphics/SVG/1.1/DTD/svg11.dtd">
<svg version="1.1" id="Ebene_1" xmlns="http://www.w3.org/2000/svg" xmlns:xlink="http://www.w3.org/1999/xlink" x="0px" y="0px"
	 width="674.796px" height="405.627px" viewBox="144.813 13.187 674.796 405.627"
	 enable-background="new 144.813 13.187 674.796 405.627" xml:space="preserve">
<title>Group 16</title>
<desc>Created with Sketch.</desc>
<g>
	<g transform="translate(-1055.000000, -108.000000)">
		<g transform="translate(1057.000000, 110.000000)">
			<g transform="translate(22.500000, 0.000000)">
				<ellipse fill="#2E2D29" stroke="#2E2D29" stroke-width="3.42" cx="459.27" cy="110.205" rx="95.172" ry="97.308"/>
				<path fill="#2E2D29" stroke="#2E2D29" stroke-width="3.42" stroke-linecap="round" d="M629.427,389.938
					c-43.858,15.639-102.042,25.165-165.878,25.165c-67.642,0-128.938-10.696-173.569-28.026
					c20.915-68.427,48.942-123.69,81.488-159.605c28.458-4.5,59.535-6.976,92.081-6.976c28.81,0,56.468,1.94,82.178,5.507
					C579.299,262.363,608.137,319.246,629.427,389.938L629.427,389.938z"/>
			</g>
			<g>
				<ellipse fill="#2E2D29" stroke="#2E2D29" stroke-width="2.394" cx="262.045" cy="81.373" rx="66.207" ry="68.476"/>
				<path fill="#2E2D29" stroke="#2E2D29" stroke-width="2.394" stroke-linecap="round" d="M380.416,278.223
					c-30.51,11.005-70.986,17.709-115.393,17.709c-47.056,0-89.696-7.527-120.744-19.723
					c14.549-48.152,34.046-87.042,56.687-112.315c19.797-3.167,41.416-4.909,64.057-4.909c20.041,0,39.282,1.365,57.167,3.875
					C345.544,188.447,365.605,228.476,380.416,278.223L380.416,278.223z"/>
			</g>
			<g transform="translate(58.500000, 0.000000)">
				<path fill="#2E2D29" stroke="#2E2D29" stroke-width="2.394" d="M639.27,149.849c36.564,0,66.206-30.658,66.206-68.476
					s-29.642-68.476-66.206-68.476c-36.565,0-66.207,30.658-66.207,68.476S602.704,149.849,639.27,149.849z"/>
				<path fill="#2E2D29" stroke="#2E2D29" stroke-width="2.394" stroke-linecap="round" d="M757.64,278.223
					c-30.511,11.005-70.986,17.709-115.394,17.709c-47.055,0-89.695-7.527-120.743-19.723
					c14.55-48.152,34.047-87.042,56.688-112.315c19.797-3.167,41.415-4.909,64.056-4.909c20.042,0,39.282,1.365,57.167,3.875
					C722.769,188.447,742.829,228.476,757.64,278.223L757.64,278.223z"/>
			</g>
		</g>
	</g>
</g>
</svg>
