<?xml version="1.0" encoding="utf-8"?>
<!-- Generator: Adobe Illustrator 16.0.0, SVG Export Plug-In . SVG Version: 6.00 Build 0)  -->
<!DOCTYPE svg PUBLIC "-//W3C//DTD SVG 1.1//EN" "http://www.w3.org/Graphics/SVG/1.1/DTD/svg11.dtd">
<svg version="1.1" id="Ebene_1" xmlns="http://www.w3.org/2000/svg" xmlns:xlink="http://www.w3.org/1999/xlink" x="0px" y="0px"
	 width="932.229px" height="933.167px" viewBox="97.816 2774.691 932.229 933.167"
	 enable-background="new 97.816 2774.691 932.229 933.167" xml:space="preserve">
<path fill="#2E2D29" d="M991.396,2813.243c-24.945-26.079-61.229-38.552-106.583-38.552c-87.308,0-202.961,48.757-320.883,131.528
	c-117.922-82.771-233.575-131.528-320.883-131.528c-45.354,0-81.638,12.473-106.583,38.552
	c-75.969,77.103-34.016,247.182,92.977,428.6c-128.126,181.417-170.079,351.496-92.977,427.464
	c24.945,26.08,61.229,38.551,106.583,38.551l0,0c87.308,0,202.961-48.756,320.883-131.527
	c117.922,82.771,233.575,131.527,320.883,131.527l0,0c45.354,0,81.638-12.471,106.583-38.551
	c75.969-77.102,34.016-247.182-92.977-428.599C1026.546,3059.291,1068.498,2889.212,991.396,2813.243z M884.813,2808.708
	c36.283,0,63.496,9.07,82.771,28.346c61.229,61.229,20.409,212.032-89.575,374.175c-37.417-51.024-81.638-102.048-131.527-151.938
	c-48.756-49.89-100.914-94.11-151.938-131.528C702.261,2852.929,807.711,2808.708,884.813,2808.708z M856.467,3241.843
	c-38.552,53.291-83.906,106.582-134.93,157.607c-51.023,51.023-104.315,96.377-157.606,134.928
	c-53.291-38.551-106.583-83.904-157.606-134.928c-51.023-51.025-96.378-104.316-134.93-157.607
	c38.552-53.292,83.906-106.583,134.93-157.607c51.023-51.023,104.315-96.378,157.606-134.929
	c53.291,38.551,106.583,83.905,157.606,134.929C772.56,3135.26,817.915,3188.551,856.467,3241.843z M160.276,2837.054
	c19.275-19.275,46.488-28.346,82.771-28.346c77.103,0,182.552,44.221,291.402,119.055
	c-51.023,38.552-102.047,82.772-151.938,131.528c-49.89,49.89-94.11,100.913-131.527,151.938
	C141.001,3049.086,99.048,2898.282,160.276,2837.054z M243.048,3673.842c-36.283,0-63.496-9.07-82.771-28.346
	c-61.229-61.229-20.41-212.031,89.575-374.174c37.417,51.024,81.638,102.048,131.527,151.938
	c48.756,49.889,100.914,94.109,151.938,131.527C425.599,3629.622,320.15,3673.842,243.048,3673.842z M967.585,3645.497
	c-19.275,19.275-46.488,28.346-82.771,28.346c-77.103,0-182.552-44.221-291.402-119.055
	c51.023-38.551,102.047-82.771,151.938-131.527c49.89-49.89,94.11-100.914,131.527-151.938
	C986.86,3433.465,1028.813,3584.268,967.585,3645.497z"/>
<g>
	<path fill="#2E2D29" d="M637.099,3116.271c-35.55,0-66.42,19.712-82.072,48.658c-15.652-28.946-46.533-48.658-82.083-48.658
		c-51.376,0-93.017,41.123-93.017,91.852c0,82.332,102.144,127.875,175.1,199.917c75.387-74.445,175.094-116.876,175.094-199.917
		C730.128,3157.394,688.48,3116.271,637.099,3116.271z"/>
</g>
</svg>
